<svg width="70" height="90" viewBox="0 0 70 90" fill="none" xmlns="http://www.w3.org/2000/svg">
<path d="M9 0.5H61C65.6944 0.5 69.5 4.30558 69.5 9V61C69.5 65.6944 65.6944 69.5 61 69.5H29.1642C26.5021 69.5 24.5518 72.0061 25.2056 74.5867C26.0087 77.7565 21.9745 79.8322 19.8623 77.336L14.9786 71.5643C13.8708 70.2551 12.2428 69.5 10.5277 69.5H8.881C4.2523 69.5 0.5 65.7477 0.5 61.119V9C0.5 4.30558 4.30558 0.5 9 0.5Z" stroke="white"/>
<path d="M13.5517 46.7275V21.273H23.7435C25.6161 21.273 27.178 21.5506 28.4292 22.1057C29.6804 22.6609 30.6208 23.4315 31.2506 24.4175C31.8803 25.3953 32.1952 26.5222 32.1952 27.7982C32.1952 28.7925 31.9963 29.6667 31.5986 30.4207C31.2009 31.1665 30.654 31.7796 29.958 32.2602C29.2702 32.7325 28.4831 33.0681 27.5965 33.267V33.5155C28.5659 33.557 29.4732 33.8304 30.3184 34.3358C31.1719 34.8413 31.8637 35.5497 32.394 36.4612C32.9243 37.3644 33.1895 38.4416 33.1895 39.6927C33.1895 41.0434 32.8539 42.249 32.1828 43.3096C31.5199 44.3619 30.538 45.1946 29.2371 45.8078C27.9362 46.421 26.3328 46.7275 24.4271 46.7275H13.5517ZM18.9335 42.3277H23.3209C24.8207 42.3277 25.9144 42.0418 26.6021 41.4701C27.2899 40.8901 27.6337 40.1195 27.6337 39.1583C27.6337 38.454 27.4639 37.8325 27.1242 37.2939C26.7844 36.7554 26.2997 36.3328 25.67 36.0262C25.0485 35.7196 24.3069 35.5663 23.4452 35.5663H18.9335V42.3277ZM18.9335 31.9246H22.9232C23.6606 31.9246 24.3152 31.7962 24.8869 31.5393C25.467 31.2742 25.9227 30.9013 26.2541 30.4207C26.5939 29.9401 26.7637 29.3643 26.7637 28.6931C26.7637 27.7733 26.4364 27.0318 25.7818 26.4683C25.1355 25.9049 24.2158 25.6231 23.0226 25.6231H18.9335V31.9246ZM41.2901 21.273L47.4424 40.6125H47.6786L53.8434 21.273H59.8093L51.0344 46.7275H44.099L35.3117 21.273H41.2901Z" fill="white"/>
</svg>
